<svg id="visual" viewBox="0 0 960 540" width="960" height="540" xmlns="http://www.w3.org/2000/svg" xmlns:xlink="http://www.w3.org/1999/xlink" version="1.1"><rect x="0" y="0" width="960" height="540" fill="#b99cf7"></rect><path d="M0 264L11.5 266.7C23 269.3 46 274.7 68.8 275C91.7 275.3 114.3 270.7 137.2 267C160 263.3 183 260.7 205.8 265C228.7 269.3 251.3 280.7 274.2 276.8C297 273 320 254 342.8 245.3C365.7 236.7 388.3 238.3 411.2 237.5C434 236.7 457 233.3 480 240.2C503 247 526 264 548.8 258C571.7 252 594.3 223 617.2 215C640 207 663 220 685.8 237.7C708.7 255.3 731.3 277.7 754.2 279.3C777 281 800 262 822.8 254.7C845.7 247.3 868.3 251.7 891.2 264.3C914 277 937 298 948.5 308.5L960 319L960 541L948.5 541C937 541 914 541 891.2 541C868.3 541 845.7 541 822.8 541C800 541 777 541 754.2 541C731.3 541 708.7 541 685.8 541C663 541 640 541 617.2 541C594.3 541 571.7 541 548.8 541C526 541 503 541 480 541C457 541 434 541 411.2 541C388.3 541 365.7 541 342.8 541C320 541 297 541 274.2 541C251.3 541 228.7 541 205.8 541C183 541 160 541 137.2 541C114.3 541 91.7 541 68.8 541C46 541 23 541 11.5 541L0 541Z" fill="#487192"></path><path d="M0 248L11.5 265.2C23 282.3 46 316.7 68.8 317C91.7 317.3 114.3 283.7 137.2 279.8C160 276 183 302 205.8 311.5C228.7 321 251.3 314 274.2 300.8C297 287.7 320 268.3 342.8 264C365.7 259.7 388.3 270.3 411.2 269.3C434 268.3 457 255.7 480 265.2C503 274.7 526 306.3 548.8 324.2C571.7 342 594.3 346 617.2 343C640 340 663 330 685.8 314.8C708.7 299.7 731.3 279.3 754.2 267.3C777 255.3 800 251.7 822.8 269C845.7 286.3 868.3 324.7 891.2 325.7C914 326.7 937 290.3 948.5 272.2L960 254L960 541L948.5 541C937 541 914 541 891.2 541C868.3 541 845.7 541 822.8 541C800 541 777 541 754.2 541C731.3 541 708.7 541 685.8 541C663 541 640 541 617.2 541C594.3 541 571.7 541 548.8 541C526 541 503 541 480 541C457 541 434 541 411.2 541C388.3 541 365.7 541 342.8 541C320 541 297 541 274.2 541C251.3 541 228.7 541 205.8 541C183 541 160 541 137.2 541C114.3 541 91.7 541 68.8 541C46 541 23 541 11.5 541L0 541Z" fill="#577eb4"></path><path d="M0 411L11.5 394.5C23 378 46 345 68.8 329C91.7 313 114.3 314 137.2 324.3C160 334.7 183 354.3 205.8 368.7C228.7 383 251.3 392 274.2 384.3C297 376.7 320 352.3 342.8 338.5C365.7 324.7 388.3 321.3 411.2 323.7C434 326 457 334 480 343.5C503 353 526 364 548.8 370.5C571.7 377 594.3 379 617.2 371.5C640 364 663 347 685.8 347C708.7 347 731.3 364 754.2 373.5C777 383 800 385 822.8 386.7C845.7 388.3 868.3 389.7 891.2 379.5C914 369.3 937 347.7 948.5 336.8L960 326L960 541L948.5 541C937 541 914 541 891.2 541C868.3 541 845.7 541 822.8 541C800 541 777 541 754.2 541C731.3 541 708.7 541 685.8 541C663 541 640 541 617.2 541C594.3 541 571.7 541 548.8 541C526 541 503 541 480 541C457 541 434 541 411.2 541C388.3 541 365.7 541 342.8 541C320 541 297 541 274.2 541C251.3 541 228.7 541 205.8 541C183 541 160 541 137.2 541C114.3 541 91.7 541 68.8 541C46 541 23 541 11.5 541L0 541Z" fill="#7887d3"></path><path d="M0 431L11.5 432.3C23 433.7 46 436.3 68.8 430.5C91.7 424.7 114.3 410.3 137.2 402.3C160 394.3 183 392.7 205.8 402.2C228.7 411.7 251.3 432.3 274.2 434.5C297 436.7 320 420.3 342.8 414.5C365.7 408.7 388.3 413.3 411.2 418.7C434 424 457 430 480 428C503 426 526 416 548.8 410.5C571.7 405 594.3 404 617.2 400.3C640 396.7 663 390.3 685.8 392.7C708.7 395 731.3 406 754.2 414.3C777 422.7 800 428.3 822.8 428.2C845.7 428 868.3 422 891.2 413.5C914 405 937 394 948.5 388.5L960 383L960 541L948.5 541C937 541 914 541 891.2 541C868.3 541 845.7 541 822.8 541C800 541 777 541 754.2 541C731.3 541 708.7 541 685.8 541C663 541 640 541 617.2 541C594.3 541 571.7 541 548.8 541C526 541 503 541 480 541C457 541 434 541 411.2 541C388.3 541 365.7 541 342.8 541C320 541 297 541 274.2 541C251.3 541 228.7 541 205.8 541C183 541 160 541 137.2 541C114.3 541 91.7 541 68.8 541C46 541 23 541 11.5 541L0 541Z" fill="#a78cea"></path><path d="M0 474L11.5 471.3C23 468.7 46 463.3 68.8 457.7C91.7 452 114.3 446 137.2 448.2C160 450.3 183 460.7 205.8 468.3C228.7 476 251.3 481 274.2 479C297 477 320 468 342.8 463.7C365.7 459.3 388.3 459.7 411.2 457.2C434 454.7 457 449.3 480 445.8C503 442.3 526 440.7 548.8 442.8C571.7 445 594.3 451 617.2 453.2C640 455.3 663 453.7 685.8 453.5C708.7 453.3 731.3 454.7 754.2 459.7C777 464.7 800 473.3 822.8 476.7C845.7 480 868.3 478 891.2 480.5C914 483 937 490 948.5 493.5L960 497L960 541L948.5 541C937 541 914 541 891.2 541C868.3 541 845.7 541 822.8 541C800 541 777 541 754.2 541C731.3 541 708.7 541 685.8 541C663 541 640 541 617.2 541C594.3 541 571.7 541 548.8 541C526 541 503 541 480 541C457 541 434 541 411.2 541C388.3 541 365.7 541 342.8 541C320 541 297 541 274.2 541C251.3 541 228.7 541 205.8 541C183 541 160 541 137.2 541C114.3 541 91.7 541 68.8 541C46 541 23 541 11.5 541L0 541Z" fill="#de8cf6"></path></svg>