<svg id="visual" viewBox="0 0 900 600" width="900" height="600" xmlns="http://www.w3.org/2000/svg" xmlns:xlink="http://www.w3.org/1999/xlink" version="1.1"><rect x="0" y="0" width="900" height="600" fill="#001220"></rect><path d="M0 349L10.7 334.8C21.3 320.7 42.7 292.3 64.2 292.2C85.7 292 107.3 320 128.8 327.7C150.3 335.3 171.7 322.7 193 315C214.3 307.3 235.7 304.7 257 287.7C278.3 270.7 299.7 239.3 321.2 232.8C342.7 226.3 364.3 244.7 385.8 262.2C407.3 279.7 428.7 296.3 450 295.5C471.3 294.7 492.7 276.3 514.2 265.2C535.7 254 557.3 250 578.8 263C600.3 276 621.7 306 643 324.5C664.3 343 685.7 350 707 339C728.3 328 749.7 299 771.2 281.2C792.7 263.3 814.3 256.7 835.8 249.5C857.3 242.3 878.7 234.7 889.3 230.8L900 227L900 601L889.3 601C878.7 601 857.3 601 835.8 601C814.3 601 792.7 601 771.2 601C749.7 601 728.3 601 707 601C685.7 601 664.3 601 643 601C621.7 601 600.3 601 578.8 601C557.3 601 535.7 601 514.2 601C492.7 601 471.3 601 450 601C428.7 601 407.3 601 385.8 601C364.3 601 342.7 601 321.2 601C299.7 601 278.3 601 257 601C235.7 601 214.3 601 193 601C171.7 601 150.3 601 128.8 601C107.3 601 85.7 601 64.2 601C42.7 601 21.3 601 10.7 601L0 601Z" fill="#487192"></path><path d="M0 323L10.7 321C21.3 319 42.7 315 64.2 320.2C85.7 325.3 107.3 339.7 128.8 344.8C150.3 350 171.7 346 193 352.7C214.3 359.3 235.7 376.7 257 373C278.3 369.3 299.7 344.7 321.2 323.8C342.7 303 364.3 286 385.8 285.8C407.3 285.7 428.7 302.3 450 322.2C471.3 342 492.7 365 514.2 361.8C535.7 358.7 557.3 329.3 578.8 311.2C600.3 293 621.7 286 643 287.7C664.3 289.3 685.7 299.7 707 307.3C728.3 315 749.7 320 771.2 320.3C792.7 320.7 814.3 316.3 835.8 329.5C857.3 342.7 878.7 373.3 889.3 388.7L900 404L900 601L889.3 601C878.7 601 857.3 601 835.8 601C814.3 601 792.7 601 771.2 601C749.7 601 728.3 601 707 601C685.7 601 664.3 601 643 601C621.7 601 600.3 601 578.8 601C557.3 601 535.7 601 514.2 601C492.7 601 471.3 601 450 601C428.7 601 407.3 601 385.8 601C364.3 601 342.7 601 321.2 601C299.7 601 278.3 601 257 601C235.7 601 214.3 601 193 601C171.7 601 150.3 601 128.8 601C107.3 601 85.7 601 64.2 601C42.7 601 21.3 601 10.7 601L0 601Z" fill="#577eb4"></path><path d="M0 375L10.7 371.8C21.3 368.7 42.7 362.3 64.2 367C85.7 371.7 107.3 387.3 128.8 395.5C150.3 403.7 171.7 404.3 193 409.2C214.3 414 235.7 423 257 420C278.3 417 299.7 402 321.2 403.3C342.7 404.7 364.3 422.3 385.8 421.2C407.3 420 428.7 400 450 396.8C471.3 393.7 492.7 407.3 514.2 417.5C535.7 427.7 557.3 434.3 578.8 432.3C600.3 430.3 621.7 419.7 643 406.3C664.3 393 685.7 377 707 375.3C728.3 373.7 749.7 386.3 771.2 384C792.7 381.7 814.3 364.3 835.8 360.5C857.3 356.7 878.7 366.3 889.3 371.2L900 376L900 601L889.3 601C878.7 601 857.3 601 835.8 601C814.3 601 792.7 601 771.2 601C749.7 601 728.3 601 707 601C685.7 601 664.3 601 643 601C621.7 601 600.3 601 578.8 601C557.3 601 535.7 601 514.2 601C492.7 601 471.3 601 450 601C428.7 601 407.3 601 385.8 601C364.3 601 342.7 601 321.2 601C299.7 601 278.3 601 257 601C235.7 601 214.3 601 193 601C171.7 601 150.3 601 128.8 601C107.3 601 85.7 601 64.2 601C42.7 601 21.3 601 10.7 601L0 601Z" fill="#7887d3"></path><path d="M0 503L10.7 488.3C21.3 473.7 42.7 444.3 64.2 440.5C85.7 436.7 107.3 458.3 128.8 468.3C150.3 478.3 171.7 476.7 193 469.7C214.3 462.7 235.7 450.3 257 441.7C278.3 433 299.7 428 321.2 429.5C342.7 431 364.3 439 385.8 440.8C407.3 442.7 428.7 438.3 450 436C471.3 433.7 492.7 433.3 514.2 434.5C535.7 435.7 557.3 438.3 578.8 438.2C600.3 438 621.7 435 643 431.2C664.3 427.3 685.7 422.7 707 423.8C728.3 425 749.7 432 771.2 434.5C792.7 437 814.3 435 835.8 446.3C857.3 457.7 878.7 482.3 889.3 494.7L900 507L900 601L889.3 601C878.7 601 857.3 601 835.8 601C814.3 601 792.7 601 771.2 601C749.7 601 728.3 601 707 601C685.7 601 664.3 601 643 601C621.7 601 600.3 601 578.8 601C557.3 601 535.7 601 514.2 601C492.7 601 471.3 601 450 601C428.7 601 407.3 601 385.8 601C364.3 601 342.7 601 321.2 601C299.7 601 278.3 601 257 601C235.7 601 214.3 601 193 601C171.7 601 150.3 601 128.8 601C107.3 601 85.7 601 64.2 601C42.7 601 21.3 601 10.7 601L0 601Z" fill="#a78cea"></path><path d="M0 489L10.7 499.8C21.3 510.7 42.7 532.3 64.2 541C85.7 549.7 107.3 545.3 128.8 538.2C150.3 531 171.7 521 193 516.8C214.3 512.7 235.7 514.3 257 510.3C278.3 506.3 299.7 496.7 321.2 499.8C342.7 503 364.3 519 385.8 523C407.3 527 428.7 519 450 518.3C471.3 517.7 492.7 524.3 514.2 529.2C535.7 534 557.3 537 578.8 536.2C600.3 535.3 621.7 530.7 643 528.2C664.3 525.7 685.7 525.3 707 520.8C728.3 516.3 749.7 507.7 771.2 510.2C792.7 512.7 814.3 526.3 835.8 527.7C857.3 529 878.7 518 889.3 512.5L900 507L900 601L889.3 601C878.7 601 857.3 601 835.8 601C814.3 601 792.7 601 771.2 601C749.7 601 728.3 601 707 601C685.7 601 664.3 601 643 601C621.7 601 600.3 601 578.8 601C557.3 601 535.7 601 514.2 601C492.7 601 471.3 601 450 601C428.7 601 407.3 601 385.8 601C364.3 601 342.7 601 321.2 601C299.7 601 278.3 601 257 601C235.7 601 214.3 601 193 601C171.7 601 150.3 601 128.8 601C107.3 601 85.7 601 64.2 601C42.7 601 21.3 601 10.7 601L0 601Z" fill="#de8cf6"></path></svg>